HIERARCHY
ROOT Pelvis
{
	OFFSET 0.000000 0.000000 0.000000
	CHANNELS 6 Xposition Yposition Zposition Xrotation Yrotation Zrotation
	JOINT LeftUpLeg_virtual
	{
		OFFSET 0.000000 0.000000 0.000000
		CHANNELS 3 Xrotation Yrotation Zrotation
		JOINT LeftUpLeg
		{
			OFFSET 18.735201 -5.666702 -4.541200
			CHANNELS 3 Xrotation Yrotation Zrotation
			JOINT LeftLeg
			{
				OFFSET -0.021200 -31.938179 0.493100
				CHANNELS 3 Xrotation Yrotation Zrotation
				JOINT LeftFoot
				{
					OFFSET 0.021200 -31.938179 -4.336299
					CHANNELS 3 Xrotation Yrotation Zrotation
					JOINT LeftToeBase
					{
						OFFSET 0.943001 -26.722000 15.023500
						CHANNELS 3 Xrotation Yrotation Zrotation
						End Site
						{
							OFFSET 0 0 0
						}
					}
				}
			}
		}
	}
	JOINT RightUpLeg_virtual
	{
		OFFSET 0.000000 0.000000 0.000000
		CHANNELS 3 Xrotation Yrotation Zrotation
		JOINT RightUpLeg
		{
			OFFSET -18.735201 -5.666702 -4.541200
			CHANNELS 3 Xrotation Yrotation Zrotation
			JOINT RightLeg
			{
				OFFSET 0.018946 -31.938133 0.493100
				CHANNELS 3 Xrotation Yrotation Zrotation
				JOINT RightFoot
				{
					OFFSET -0.018946 -31.938126 -4.336299
					CHANNELS 3 Xrotation Yrotation Zrotation
					JOINT RightToeBase
					{
						OFFSET -0.943001 -26.722004 15.023500
						CHANNELS 3 Xrotation Yrotation Zrotation
						End Site
						{
							OFFSET 0 0 0
						}
					}
				}
			}
		}
	}
	JOINT Hips_virtual
	{
		OFFSET 0.000000 0.000000 0.000000
		CHANNELS 3 Xrotation Yrotation Zrotation
		JOINT Hips
		{
			OFFSET -0.000000 -0.000000 -0.000000
			CHANNELS 3 Xrotation Yrotation Zrotation
			JOINT Spine
			{
				OFFSET 0.000000 10.199997 -0.299500
				CHANNELS 3 Xrotation Yrotation Zrotation
				JOINT Spine1
				{
					OFFSET 0.000000 11.900002 -1.516600
					CHANNELS 3 Xrotation Yrotation Zrotation
					JOINT Spine2
					{
						OFFSET 0.000000 13.600006 -2.842500
						CHANNELS 3 Xrotation Yrotation Zrotation
						JOINT Neck_virtual
						{
							OFFSET 0.000000 0.000000 0.000000
							CHANNELS 3 Xrotation Yrotation Zrotation
							JOINT Neck
							{
								OFFSET 0.000000 9.624100 -2.890100
								CHANNELS 3 Xrotation Yrotation Zrotation
								JOINT Head
								{
									OFFSET 0.000000 14.068802 -1.351900
									CHANNELS 3 Xrotation Yrotation Zrotation
									End Site
									{
										OFFSET 0 0 0
									}
								}
							}
						}
						JOINT LeftShoulder_virtual
						{
							OFFSET 0.000000 0.000000 0.000000
							CHANNELS 3 Xrotation Yrotation Zrotation
							JOINT LeftShoulder
							{
								OFFSET 15.263000 10.923401 -0.547700
								CHANNELS 3 Xrotation Yrotation Zrotation
								JOINT LeftArm
								{
									OFFSET 25.438599 -2.830597 -13.032500
									CHANNELS 3 Xrotation Yrotation Zrotation
									JOINT LeftForeArm
									{
										OFFSET 29.960503 0.000000 0.000000
										CHANNELS 3 Xrotation Yrotation Zrotation
										JOINT LeftHand
										{
											OFFSET 27.849251 0.000000 0.000000
											CHANNELS 3 Xrotation Yrotation Zrotation
											End Site
											{
												OFFSET 0 0 0
											}
										}
									}
								}
							}
						}
						JOINT RightShoulder_virtual
						{
							OFFSET 0.000000 0.000000 0.000000
							CHANNELS 3 Xrotation Yrotation Zrotation
							JOINT RightShoulder
							{
								OFFSET -15.263000 10.923401 -0.547700
								CHANNELS 3 Xrotation Yrotation Zrotation
								JOINT RightArm
								{
									OFFSET -25.438599 -2.830597 -13.032500
									CHANNELS 3 Xrotation Yrotation Zrotation
									JOINT RightForeArm
									{
										OFFSET -29.960503 0.000000 0.000000
										CHANNELS 3 Xrotation Yrotation Zrotation
										JOINT RightHand
										{
											OFFSET -27.849251 0.000000 0.000000
											CHANNELS 3 Xrotation Yrotation Zrotation
											End Site
											{
												OFFSET 0 0 0
											}
										}
									}
								}
							}
						}
					}
				}
			}
		}
	}
}
MOTION
Frames: 9
Frame Time: 0.03333333
-20.687653 9.717041 -63.791267 0.000000 0.000000 0.000000 -85.196952 11.246671 0.851786 -87.985472 -13.487663 31.029935 107.365417 5.509437 -27.255267 19.440127 14.193750 36.727379 0.000000 0.000000 0.000000 -85.678911 12.577130 2.245211 -64.325697 29.769936 -40.535796 121.737412 22.929519 18.043620 34.164671 10.886132 27.639761 0.000000 0.000000 0.000000 -83.307230 12.464004 2.345987 -0.987909 -0.477100 -0.285139 46.852666 5.512909 -3.412734 29.060546 0.846496 1.641810 0.000000 0.000000 0.000000 27.604942 2.956618 2.153618 3.715085 0.446631 -3.393620 0.000000 0.000000 0.000000 26.440996 1.239355 4.686861 0.974011 -6.173131 -7.592594 -35.208788 -22.544089 -51.889009 47.769373 -65.669264 45.680111 0.000000 0.000000 0.000000 26.222889 6.037914 0.489756 -4.223316 25.622343 5.120724 -24.843398 -2.506166 65.094892 40.620750 5.558467 -57.590468 0.000000 0.000000 0.000000 
-21.957745 8.267509 -66.496201 0.000000 0.000000 0.000000 -93.157189 12.052211 2.173581 -88.592321 -19.923493 30.020901 106.202284 4.266274 -26.199284 27.522836 13.836609 29.363714 0.000000 0.000000 0.000000 -94.080972 13.521615 3.774394 -50.659691 30.217979 -37.376820 114.495704 20.225553 17.948614 26.522022 12.253686 27.574490 0.000000 0.000000 0.000000 -92.016910 13.425313 3.820315 -1.001494 -0.548560 -0.243634 45.626528 6.067170 -2.313121 29.847141 1.260186 0.948849 0.000000 0.000000 0.000000 28.219417 3.302497 2.042826 4.451659 0.477086 -3.956621 0.000000 0.000000 0.000000 27.155073 1.472560 4.573883 0.634290 -7.030937 -7.121047 -30.531089 -26.230829 -49.143436 48.614288 -66.556724 47.017779 0.000000 0.000000 0.000000 28.165711 6.562993 0.107252 -5.406447 26.845201 4.208646 -17.569975 -0.108201 65.883977 40.619285 5.161539 -56.311826 0.000000 0.000000 0.000000 
-23.249702 7.381355 -69.082077 0.000000 0.000000 0.000000 -100.568880 13.073027 3.691894 -87.235798 -26.243653 29.270417 103.488547 3.166073 -24.915350 33.710829 11.119641 22.667509 0.000000 0.000000 0.000000 -102.236840 14.750383 5.312544 -41.202440 32.740191 -34.007970 111.528793 17.094917 16.531535 17.084055 12.435089 26.803761 0.000000 0.000000 0.000000 -100.477588 14.784445 5.461297 -0.972875 -0.600067 -0.202023 44.022321 5.435848 -0.995163 29.693192 1.328769 0.450571 0.000000 0.000000 0.000000 28.032812 3.303806 1.986797 5.011599 0.376646 -4.285282 0.000000 0.000000 0.000000 26.908145 1.307407 4.452341 0.160258 -8.515940 -7.140283 -26.095889 -29.215526 -47.298777 46.411508 -66.525482 45.528740 0.000000 0.000000 0.000000 29.256535 6.743422 -0.083664 -5.953853 28.180070 3.176729 -12.096907 4.933695 67.462448 39.013402 3.188216 -53.746455 0.000000 0.000000 0.000000 
-24.601959 6.900780 -71.480034 0.000000 0.000000 0.000000 -106.990726 13.872139 4.837171 -84.098876 -31.823747 29.495615 99.860316 2.384047 -23.838028 36.055810 7.391195 17.983833 0.000000 0.000000 0.000000 -109.603759 15.782892 6.575761 -37.402123 36.239911 -30.679454 112.743733 14.061923 14.782389 9.321632 12.630534 26.143232 0.000000 0.000000 0.000000 -108.161926 16.119624 7.054402 -0.907356 -0.663746 -0.184070 42.064994 3.494182 0.136815 28.512148 0.894262 0.137138 0.000000 0.000000 0.000000 26.846569 2.854031 2.062943 5.402572 0.186380 -4.285802 0.000000 0.000000 0.000000 25.610477 0.576336 4.422714 -0.335333 -10.084699 -7.382160 -21.649232 -31.330532 -46.442739 40.967871 -65.002473 40.875807 0.000000 0.000000 0.000000 29.217586 6.359771 -0.105517 -6.111542 29.159215 3.230502 -6.938457 10.534654 68.417616 38.171455 2.840373 -51.767366 0.000000 0.000000 0.000000 
-26.026081 6.617851 -73.601662 0.000000 0.000000 0.000000 -112.226681 14.331847 5.556493 -80.648094 -35.860289 31.014561 97.244634 1.870018 -23.327316 34.427066 4.592237 15.782037 0.000000 0.000000 0.000000 -115.416482 16.296449 7.428404 -38.800146 39.658042 -27.096356 116.436735 11.820611 13.741352 6.129850 13.612830 26.122207 0.000000 0.000000 0.000000 -114.399624 16.844373 8.113173 -0.841687 -0.726694 -0.148059 39.848604 0.466949 0.787879 26.260143 -0.046712 -0.054725 0.000000 0.000000 0.000000 24.779737 1.790165 2.259576 5.608962 -0.100468 -3.960699 0.000000 0.000000 0.000000 23.357785 -0.691413 4.458931 -0.771952 -11.025253 -7.625350 -16.557432 -32.944209 -45.699727 33.814194 -61.637389 34.452861 0.000000 0.000000 0.000000 27.779744 5.265644 -0.044084 -6.149757 29.658703 4.948382 -0.340511 14.494838 66.933279 39.972203 6.817475 -51.568444 0.000000 0.000000 0.000000 
-27.341351 6.252663 -75.868942 0.000000 0.000000 0.000000 -116.382708 14.209128 5.783374 -77.908881 -38.324096 33.489889 96.827876 1.302441 -23.197474 28.642702 2.455552 15.633024 0.000000 0.000000 0.000000 -119.647292 16.109239 7.811347 -44.289935 42.345096 -23.094666 120.590241 10.333432 13.741825 8.672178 15.277996 26.592035 0.000000 0.000000 0.000000 -119.053476 16.664888 8.442212 -0.796994 -0.797595 -0.091674 37.485028 -3.289100 0.798297 23.275186 -1.471714 -0.296210 0.000000 0.000000 0.000000 22.148874 0.206583 2.422102 5.576833 -0.439287 -3.370138 0.000000 0.000000 0.000000 20.588919 -2.498812 4.438408 -1.133134 -11.197686 -7.362144 -10.224419 -34.293161 -43.786335 27.087188 -56.845738 28.168714 0.000000 0.000000 0.000000 25.443428 3.565236 -0.108728 -5.968281 29.571321 7.445280 8.663338 15.358109 62.104397 45.763162 15.842637 -54.322096 0.000000 0.000000 0.000000 
-28.560112 5.654854 -78.036552 0.000000 0.000000 0.000000 -119.672277 13.568057 5.819378 -75.984564 -39.714412 36.512719 97.975191 0.251844 -22.885100 20.749276 -0.248401 15.813303 0.000000 0.000000 0.000000 -122.674309 15.220566 7.965418 -52.407198 44.086641 -18.756312 124.259473 9.274323 14.636431 15.140540 16.630382 26.595963 0.000000 0.000000 0.000000 -122.255564 15.608705 8.286209 -0.789859 -0.840949 -0.068747 35.227363 -7.246367 0.252085 19.962321 -3.214576 -0.808273 0.000000 0.000000 0.000000 19.385431 -1.722373 2.304717 5.295566 -0.820562 -2.644033 0.000000 0.000000 0.000000 17.756320 -4.623637 4.156949 -1.441282 -10.652222 -6.655343 -2.309487 -35.331660 -39.749061 22.263215 -52.090789 23.331641 0.000000 0.000000 0.000000 22.894801 1.545721 -0.469404 -5.421030 28.999624 9.410798 17.668222 12.750399 55.897643 55.133174 26.985652 -60.302934 0.000000 0.000000 0.000000 
-29.447487 4.678177 -79.965759 0.000000 0.000000 0.000000 -122.261793 12.480461 5.882991 -74.882021 -40.401877 39.953379 100.273488 -1.367007 -22.116626 13.094126 -3.271758 15.480974 0.000000 0.000000 0.000000 -124.614261 13.831767 8.006694 -61.891903 45.202270 -14.217776 127.536106 8.542005 16.279776 22.134611 16.392625 25.685531 0.000000 0.000000 0.000000 -124.123716 13.960604 7.832282 -0.830860 -0.833943 -0.070954 33.391914 -10.815473 -0.402915 16.717718 -4.904324 -1.667299 0.000000 0.000000 0.000000 16.932857 -3.677662 1.708427 4.769235 -1.238291 -1.911183 0.000000 0.000000 0.000000 15.215648 -6.713292 3.470579 -1.674033 -9.624310 -5.692252 7.076445 -35.630139 -33.322294 19.491268 -49.272097 20.069978 0.000000 0.000000 0.000000 20.538929 -0.383163 -1.152255 -4.412903 28.230871 9.872533 23.559351 9.149540 51.223775 64.539605 35.348964 -66.624882 0.000000 0.000000 0.000000 
-29.904259 3.302544 -81.808640 0.000000 0.000000 0.000000 -123.997481 11.008093 5.706076 -74.151641 -40.642170 43.746405 103.002511 -3.231632 -21.063431 7.405505 -5.936534 14.696721 0.000000 0.000000 0.000000 -125.736051 12.202012 7.820427 -72.223076 45.370730 -9.736236 130.356578 8.005026 18.292645 26.605231 14.461242 24.778980 0.000000 0.000000 0.000000 -124.923327 12.154331 7.399716 -0.875051 -0.814753 -0.118209 32.178667 -13.648424 -0.829712 13.913344 -6.231953 -2.795756 0.000000 0.000000 0.000000 15.147608 -5.302235 0.651587 4.058501 -1.662211 -1.241896 0.000000 0.000000 0.000000 13.145970 -8.427658 2.406335 -1.820277 -8.438741 -4.777890 16.632506 -34.289585 -25.851740 18.315303 -49.205349 18.004338 0.000000 0.000000 0.000000 18.692351 -1.831769 -2.029539 -3.079962 27.410809 8.693997 25.276940 7.243095 49.546069 68.752363 39.051969 -68.350529 0.000000 0.000000 0.000000 
